<?xml version="1.0" encoding="UTF-8"?>
<svg id="Layer_1" data-name="Layer 1" xmlns="http://www.w3.org/2000/svg" viewBox="0 0 3000 3000">
  <defs>
    <style>
      .cls-1 {
        fill: #ff5f05;
      }

      .cls-2 {
        fill: #fff;
      }

      .cls-3 {
        fill: #13294b;
      }
    </style>
  </defs>
  <rect class="cls-3" x="-6.94" y="-6.2" width="3016.22" height="3016.22"/>
  <g>
    <path class="cls-2" d="M946.9,2348.27v-284.05c0-32.48-5.31-57.81-15.34-73.26-8.35-12.84-19.7-18.57-36.82-18.57-18.14,0-41.58,10.96-53.06,41.72-2.29,6.37-3.83,17.75-3.83,28.39v305.77h-173.33v-296.32c0-26.74-4.95-48.2-14.32-62.04-8.08-11.95-19.21-17.51-35.01-17.51-28.72,0-47.81,23.92-55.6,44.71-2.7,9.04-4.12,19.11-4.12,29.17v301.99h-173.33v-352.99c0-52.5-1.93-97.48-3.74-135.51l-1.5-31.43h158.23l2.38,28.56c28.42-22.25,67.35-38.95,120.18-38.95s101.51,23.18,132.08,62.64c11.19-11.78,23.4-21.92,36.54-30.33,32.64-22.05,67.9-32.32,110.92-32.32,49.85,0,94.93,19.22,126.94,54.11,37.2,40.55,56.06,99.48,56.06,175.16v301.05h-173.33Z"/>
    <path class="cls-1" d="M412.15,1995.28c0-52.89-1.89-97.27-3.78-136.94h99.16l5.67,68h2.83c21.72-35.89,63.28-78.39,141.66-78.39,60.44,0,107.66,34,127.5,85h1.89c16.06-25.5,34.94-44.39,55.72-57.61,26.44-17.94,55.72-27.39,94.44-27.39,75.55,0,152.99,51.94,152.99,199.27v271.05h-113.33v-254.05c0-76.5-26.44-121.83-82.16-121.83-39.67,0-68.94,28.33-81.22,61.39-3.78,10.39-5.67,25.5-5.67,38.72v275.77h-113.33v-266.32c0-64.22-25.5-109.55-79.33-109.55-43.44,0-72.72,34-84.05,65.16-3.78,12.28-5.67,25.5-5.67,38.72v271.99h-113.33v-322.99Z"/>
    <path class="cls-2" d="M1508.6,2357.71c-106.62,0-196.32-33.28-259.42-96.24-62.45-62.32-95.46-150.12-95.46-253.92,0-55.02,9.46-106.21,28.12-152.13,18.14-44.64,44.64-83.64,78.78-115.92,33.34-31.53,73.17-55.92,118.37-72.48,44.79-16.41,93.8-24.73,145.67-24.73,36.76,0,71.35,3.26,102.81,9.7,25.98,5.31,49.05,12.8,64.97,21.07l21.32,11.09-39.69,149.59-32.05-14.02c-22.98-10.05-61.18-22.04-112.64-22.04-57.34,0-105.33,17.63-138.78,50.98-35.39,35.29-54.1,88.28-54.1,153.24,0,61.33,17.25,111.8,49.89,145.96,16,16.75,35.76,29.71,58.74,38.52,24.34,9.33,52.37,14.07,83.3,14.07,40.09,0,86.24-8.15,114.84-20.28l33.7-14.3,31,150.37-21.06,10.17c-17.45,8.43-42.75,16.09-71.24,21.57-33.14,6.38-70.16,9.75-107.08,9.75Z"/>
    <path class="cls-1" d="M1673.87,2299.38c-27.39,13.22-87.83,28.33-165.27,28.33-202.1,0-324.88-126.55-324.88-320.16,0-209.66,146.38-335.27,340.93-335.27,76.5,0,130.33,15.11,153.94,27.39l-24.55,92.55c-30.22-13.22-72.72-24.55-124.66-24.55-129.38,0-222.88,81.22-222.88,234.21,0,139.77,81.22,228.55,221.94,228.55,46.28,0,95.39-9.44,126.55-22.67l18.89,91.61Z"/>
    <polygon class="cls-2" points="1743.03 2348.27 1743.03 1651.73 1919.2 1651.73 1919.2 2190.99 2180.8 2190.99 2180.8 2348.27 1743.03 2348.27"/>
    <path class="cls-1" d="M1773.03,1681.73h116.16v539.26h261.6v97.27h-377.76v-636.53Z"/>
    <path class="cls-2" d="M2759.66,2348.27l-13.63-288.3-.44-9.58c-1.13-24.46-2.3-49.89-3.36-75.78-7.81,23.88-15.79,47.39-23.82,70.14l-100.34,295.96h-132.34l-91.66-293.31c-5.21-17.24-10.33-34.72-15.33-52.32-1.07,23.31-2.22,46.5-3.44,68.88l-15.74,284.31h-169.06l46.5-696.53h202.86l89.93,276.94.08.27c11.27,37.11,22.13,75.44,32.28,113.88,10.2-36.09,21.99-75.43,35.18-115.49l94.93-275.61h200.82l40.3,696.53h-173.73Z"/>
    <path class="cls-1" d="M2776,2058.55c-3.78-82.16-8.5-180.38-7.56-267.27h-2.83c-20.78,77.44-47.22,163.38-75.55,243.66l-93.5,275.77h-88.77l-85-271.99c-24.55-81.22-47.22-168.11-64.22-247.44h-1.89c-2.83,83.11-6.61,184.16-11.33,271.05l-14.17,255.94h-108.61l42.5-636.53h152.99l83.11,255.94c22.67,74.61,42.5,150.16,58.55,220.99h2.83c17-68.94,38.72-147.33,63.28-221.94l87.83-254.99h151.11l36.83,636.53h-113.33l-12.28-259.71Z"/>
  </g>
</svg>